<!DOCTYPE svg PUBLIC "-//W3C//DTD SVG 1.1//EN" "http://www.w3.org/Graphics/SVG/1.1/DTD/svg11.dtd">
<!-- Uploaded to: SVG Repo, www.svgrepo.com, Transformed by: SVG Repo Mixer Tools -->
<svg version="1.1" id="Layer_1" xmlns="http://www.w3.org/2000/svg" xmlns:xlink="http://www.w3.org/1999/xlink" viewBox="0 0 512 512" xml:space="preserve" width="800px" height="800px" fill="#000000">
<g id="SVGRepo_bgCarrier" stroke-width="0"/>
<g id="SVGRepo_tracerCarrier" stroke-linecap="round" stroke-linejoin="round"/>
<g id="SVGRepo_iconCarrier"> <polygon style="fill:#01d065;" points="285.373,77.95 142.686,77.95 156.962,228.484 320.564,190.754 "/> <polygon style="fill:#52f425;" points="0,77.95 35.191,190.754 187.455,221.452 142.686,77.95 "/> <polygon style="fill:#01d065;" points="512,77.95 433.877,77.95 367.107,216.641 476.809,190.754 "/> <polygon style="fill:#52f425;" points="355.755,77.95 320.564,190.754 392.478,210.655 433.877,77.95 "/> <polygon style="fill:#1db44a;" points="476.809,190.754 398.686,190.754 377.771,307.896 398.686,434.049 476.809,434.049 "/> <polygon style="fill:#01d065;" points="320.564,190.754 299.65,312.401 320.564,434.049 398.686,434.049 398.686,190.754 "/> <polygon style="fill:#52f425;" points="320.564,190.754 177.877,190.754 156.962,312.401 177.877,434.049 320.564,434.049 "/> <rect x="35.191" y="190.756" style="fill:#63ff38;" width="142.691" height="243.294"/> <polygon style="fill:#00ff91;" points="204.024,190.754 168.751,174.497 177.877,434.049 204.024,434.049 "/> <polygon style="fill:#75ff9f;" points="151.732,190.754 151.732,434.049 177.877,434.049 177.877,180.297 "/> <polygon style="fill:#00ffb3;" points="168.833,77.95 142.686,77.95 151.732,147.296 177.877,190.754 204.024,190.754 "/> <polygon style="fill:#00ff91;" points="116.541,77.95 151.732,190.754 177.877,190.754 142.686,77.95 "/> </g>
</svg>